<svg xmlns="http://www.w3.org/2000/svg" width="128" height="128" viewBox="0 0 128 128">
  <rect width="128" height="128" rx="14" fill="#111923"/>
  <path d="M39 34c4-15 46-15 50 0" fill="none" stroke="#8e9aab" stroke-width="8" stroke-linecap="round"/>
  <path d="M28 47c0-11 9-20 20-20h32c11 0 20 9 20 20v54c0 8-7 15-15 15H43c-8 0-15-7-15-15V47Z" fill="#5b5139" stroke="#d8b36a" stroke-width="3"/>
  <path d="M38 66h52v31c0 6-5 11-11 11H49c-6 0-11-5-11-11V66Z" fill="#2f3b42"/>
  <path d="M31 57h-9v35h9M97 57h9v35h-9" fill="none" stroke="#8e9aab" stroke-width="6" stroke-linecap="round"/>
  <path d="M46 49h36M47 82h34" stroke="#d8b36a" stroke-width="5" stroke-linecap="round"/>
</svg>
