<svg xmlns="http://www.w3.org/2000/svg" width="128" height="128" viewBox="0 0 128 128">
  <rect width="128" height="128" rx="14" fill="#111923"/>
  <path d="M43 35c0-13 42-13 42 0" fill="none" stroke="#8e9aab" stroke-width="8" stroke-linecap="round"/>
  <path d="M32 48c0-10 8-18 18-18h28c10 0 18 8 18 18v51c0 8-6 14-14 14H46c-8 0-14-6-14-14V48Z" fill="#4f654f" stroke="#d8b36a" stroke-width="3"/>
  <path d="M43 69h42v28c0 5-4 9-9 9H52c-5 0-9-4-9-9V69Z" fill="#263746" opacity=".95"/>
  <path d="M48 52h32M51 83h26" stroke="#d8b36a" stroke-width="5" stroke-linecap="round"/>
</svg>
