<svg xmlns="http://www.w3.org/2000/svg" width="512" height="512" viewBox="0 0 512 512"><rect width="512" height="512" fill="none"/><ellipse cx="256" cy="474" rx="116" ry="24" fill="#081017" opacity=".45"/><path d="M150 462Q166 260 256 242Q346 260 362 462Z" fill="#2f3c35"/><path d="M177 304L139 428" stroke="#243129" stroke-width="38" stroke-linecap="round"/><path d="M335 304L373 428" stroke="#243129" stroke-width="38" stroke-linecap="round"/><path d="M205 456L213 344M307 456L299 344" stroke="#191d1c" stroke-width="34" stroke-linecap="round"/><circle cx="256" cy="152" r="69" fill="#b98968"/><path d="M184 117Q243 52 324 87Q330 120 318 143Q263 94 184 137Z" fill="#3b2920"/><path d="M187 248Q256 215 325 248L342 462H170Z" fill="#59614f"/><path d="M190 257L323 457" stroke="#1f2a27" stroke-width="18" opacity=".75"/><path d="M318 262L193 457" stroke="#1f2a27" stroke-width="18" opacity=".75"/><rect x="210" y="296" width="94" height="42" rx="6" fill="#c48645"/><path d="M215 181Q256 211 302 181" fill="none" stroke="#57382f" stroke-width="9" stroke-linecap="round"/><circle cx="232" cy="148" r="6" fill="#15171c"/><circle cx="282" cy="148" r="6" fill="#15171c"/></svg>
