<svg xmlns="http://www.w3.org/2000/svg" width="512" height="512" viewBox="0 0 512 512"><rect width="512" height="512" fill="none"/><ellipse cx="256" cy="474" rx="116" ry="24" fill="#081017" opacity=".45"/><path d="M150 462Q168 258 256 240Q344 258 362 462Z" fill="#313947"/><path d="M176 305L138 430" stroke="#242b34" stroke-width="38" stroke-linecap="round"/><path d="M336 305L374 430" stroke="#242b34" stroke-width="38" stroke-linecap="round"/><path d="M204 456L212 342M308 456L300 342" stroke="#171d24" stroke-width="34" stroke-linecap="round"/><circle cx="256" cy="152" r="69" fill="#d0a88e"/><path d="M178 130Q216 58 306 70Q352 86 354 166Q304 106 178 130Z" fill="#4b3329"/><path d="M185 249Q256 218 327 249L346 462H166Z" fill="#d8dde8"/><path d="M166 334L346 334" stroke="#38465a" stroke-width="16"/><path d="M256 292V360M222 326H290" stroke="#c36155" stroke-width="18" stroke-linecap="round"/><path d="M211 181Q256 211 303 181" fill="none" stroke="#6c4943" stroke-width="9" stroke-linecap="round"/><circle cx="232" cy="147" r="6" fill="#15171c"/><circle cx="282" cy="147" r="6" fill="#15171c"/></svg>
