<svg xmlns="http://www.w3.org/2000/svg" width="512" height="512" viewBox="0 0 512 512"><rect width="512" height="512" fill="none"/><ellipse cx="256" cy="474" rx="118" ry="24" fill="#081017" opacity=".45"/><path d="M144 462Q162 253 256 238Q350 253 368 462Z" fill="#242b34"/><path d="M175 304L135 428" stroke="#1a2028" stroke-width="40" stroke-linecap="round"/><path d="M337 304L377 428" stroke="#1a2028" stroke-width="40" stroke-linecap="round"/><path d="M203 456L212 342M309 456L300 342" stroke="#12171d" stroke-width="36" stroke-linecap="round"/><circle cx="256" cy="153" r="68" fill="#b98f75"/><path d="M184 119Q220 58 305 73Q352 96 345 169Q306 113 184 119Z" fill="#221a18"/><path d="M182 248Q256 214 330 248L358 462H154Z" fill="#29313c"/><path d="M180 289L332 289L346 426L166 426Z" fill="#67717c"/><path d="M204 325H308M211 373H301" stroke="#3b424b" stroke-width="16" stroke-linecap="round"/><path d="M214 181Q256 208 302 181" fill="none" stroke="#5b3b38" stroke-width="9" stroke-linecap="round"/><circle cx="233" cy="147" r="6" fill="#15171c"/><circle cx="281" cy="147" r="6" fill="#15171c"/></svg>
