<svg xmlns="http://www.w3.org/2000/svg" width="512" height="512" viewBox="0 0 512 512"><rect width="512" height="512" fill="none"/><ellipse cx="256" cy="474" rx="116" ry="24" fill="#081017" opacity=".45"/><path d="M151 462Q168 263 256 244Q344 263 361 462Z" fill="#263746"/><path d="M174 304L138 430" stroke="#1a242d" stroke-width="38" stroke-linecap="round"/><path d="M338 304L374 430" stroke="#1a242d" stroke-width="38" stroke-linecap="round"/><path d="M202 456L212 342M310 456L300 342" stroke="#141b22" stroke-width="34" stroke-linecap="round"/><circle cx="256" cy="152" r="70" fill="#c9a58a"/><path d="M175 137Q210 55 306 71Q361 81 353 184Q314 98 175 137Z" fill="#251b21"/><path d="M186 250Q256 219 326 250L350 462H162Z" fill="#394a5b"/><path d="M198 302L314 302" stroke="#d8b36a" stroke-width="12" stroke-linecap="round"/><path d="M213 181Q256 211 303 181" fill="none" stroke="#684545" stroke-width="9" stroke-linecap="round"/><circle cx="232" cy="146" r="6" fill="#15171c"/><circle cx="281" cy="146" r="6" fill="#15171c"/></svg>
