<svg xmlns="http://www.w3.org/2000/svg" width="512" height="512" viewBox="0 0 512 512"><rect width="512" height="512" fill="none"/><ellipse cx="256" cy="474" rx="122" ry="25" fill="#081017" opacity=".45"/><path d="M134 462Q154 255 256 238Q358 255 378 462Z" fill="#2f3e3a"/><path d="M169 300L132 428" stroke="#202b2c" stroke-width="42" stroke-linecap="round"/><path d="M343 300L380 428" stroke="#202b2c" stroke-width="42" stroke-linecap="round"/><path d="M200 456L209 338M312 456L303 338" stroke="#151b1d" stroke-width="38" stroke-linecap="round"/><circle cx="256" cy="151" r="72" fill="#ba9274"/><path d="M178 101Q253 41 336 104L324 70Q252 20 178 70Z" fill="#2d2725"/><path d="M188 246Q256 214 324 246L354 462H158Z" fill="#3d4d48"/><path d="M188 300H324" stroke="#d8b36a" stroke-width="12" stroke-linecap="round"/><path d="M209 181Q256 232 304 181Q292 239 256 244Q221 238 209 181Z" fill="#4a342d"/><circle cx="232" cy="146" r="6" fill="#15171c"/><circle cx="282" cy="146" r="6" fill="#15171c"/></svg>
