<svg xmlns="http://www.w3.org/2000/svg" width="512" height="512" viewBox="0 0 512 512"><rect width="512" height="512" fill="none"/><ellipse cx="256" cy="474" rx="122" ry="25" fill="#081017" opacity=".45"/><path d="M134 462Q154 255 256 238Q358 255 378 462Z" fill="#28322f"/><path d="M169 300L132 428" stroke="#1f2926" stroke-width="42" stroke-linecap="round"/><path d="M343 300L380 428" stroke="#1f2926" stroke-width="42" stroke-linecap="round"/><path d="M200 456L209 338M312 456L303 338" stroke="#151b1d" stroke-width="38" stroke-linecap="round"/><circle cx="256" cy="151" r="72" fill="#a7795d"/><path d="M185 105Q252 56 323 99Q319 132 300 146Q246 103 185 132Z" fill="#38261e"/><path d="M184 245Q256 213 328 245L350 462H162Z" fill="#5b634e"/><path d="M190 255L324 456" stroke="#202a26" stroke-width="19" opacity=".8"/><path d="M322 256L188 456" stroke="#202a26" stroke-width="19" opacity=".8"/><rect x="208" y="296" width="96" height="44" rx="6" fill="#c48645"/><path d="M210 181Q256 229 304 181Q292 236 256 242Q222 238 210 181Z" fill="#46322b"/><circle cx="232" cy="147" r="6" fill="#15171c"/><circle cx="282" cy="147" r="6" fill="#15171c"/></svg>
