<svg xmlns="http://www.w3.org/2000/svg" width="512" height="512" viewBox="0 0 512 512"><rect width="512" height="512" fill="none"/><ellipse cx="256" cy="474" rx="124" ry="25" fill="#081017" opacity=".45"/><path d="M128 462Q150 250 256 236Q362 250 384 462Z" fill="#242b34"/><path d="M168 299L128 428" stroke="#1a2028" stroke-width="44" stroke-linecap="round"/><path d="M344 299L384 428" stroke="#1a2028" stroke-width="44" stroke-linecap="round"/><path d="M198 456L208 338M314 456L304 338" stroke="#12171d" stroke-width="40" stroke-linecap="round"/><circle cx="256" cy="151" r="71" fill="#ae8369"/><path d="M181 100Q254 45 331 102L322 69Q253 22 181 72Z" fill="#221a18"/><path d="M180 244Q256 211 332 244L360 462H152Z" fill="#29313c"/><path d="M178 288H334L348 426H164Z" fill="#68727f"/><path d="M204 325H308M211 373H301" stroke="#3b424b" stroke-width="16" stroke-linecap="round"/><path d="M209 181Q256 228 304 181Q292 236 256 242Q222 238 209 181Z" fill="#45312c"/><circle cx="232" cy="147" r="6" fill="#15171c"/><circle cx="282" cy="147" r="6" fill="#15171c"/></svg>
