<svg xmlns="http://www.w3.org/2000/svg" width="512" height="512" viewBox="0 0 512 512"><rect width="512" height="512" fill="none"/><ellipse cx="256" cy="474" rx="122" ry="25" fill="#081017" opacity=".45"/><path d="M134 462Q154 255 256 238Q358 255 378 462Z" fill="#2e3541"/><path d="M169 301L132 428" stroke="#202733" stroke-width="42" stroke-linecap="round"/><path d="M343 301L380 428" stroke="#202733" stroke-width="42" stroke-linecap="round"/><path d="M200 456L209 338M312 456L303 338" stroke="#151b22" stroke-width="38" stroke-linecap="round"/><circle cx="256" cy="151" r="72" fill="#c79c7f"/><path d="M181 111Q250 50 330 101Q323 143 304 154Q252 103 181 132Z" fill="#473029"/><path d="M184 245Q256 213 328 245L350 462H162Z" fill="#d8dde8"/><path d="M165 334H347" stroke="#38465a" stroke-width="16"/><path d="M256 292V360M222 326H290" stroke="#c36155" stroke-width="18" stroke-linecap="round"/><path d="M210 181Q256 229 304 181Q293 236 256 242Q222 238 210 181Z" fill="#573a34"/><circle cx="232" cy="147" r="6" fill="#15171c"/><circle cx="282" cy="147" r="6" fill="#15171c"/></svg>
